# Blender v2.74 (sub 0) OBJ File: 'A.blend'
# www.blender.org
mtllib A.mtl
o Cube_Cube.001
v -0.137500 2.206748 -1.319637
v -0.137500 -2.206748 -1.319637
v -0.137500 -2.206748 1.319637
v -0.137500 2.206748 1.319637
v 0.137500 2.206748 -1.319637
v 0.137500 -2.206748 1.319637
v 0.137500 -2.206748 -1.319637
v 0.137500 2.206748 1.319637
v 0.137500 1.919760 0.801603
v 0.137500 1.944146 0.799202
v 0.137500 1.967595 0.792089
v 0.137500 1.989206 0.780537
v 0.137500 2.008148 0.764992
v 0.137500 2.023694 0.746050
v 0.137500 2.035245 0.724439
v 0.137500 2.042358 0.700990
v 0.137500 2.044760 0.676604
v 0.137500 2.042358 0.652217
v 0.137500 2.035245 0.628768
v 0.137500 2.023694 0.607157
v 0.137500 2.008148 0.588215
v 0.137500 1.989206 0.572670
v 0.137500 1.967595 0.561119
v 0.137500 1.944146 0.554005
v 0.137500 1.919760 0.551604
v 0.137500 1.895374 0.554005
v 0.137500 1.871924 0.561119
v 0.137500 1.850314 0.572670
v 0.137500 1.831372 0.588215
v 0.137500 1.815826 0.607157
v 0.137500 1.804275 0.628768
v 0.137500 1.797162 0.652217
v 0.137500 1.794760 0.676603
v 0.137500 1.797162 0.700990
v 0.137500 1.804275 0.724439
v 0.137500 1.815826 0.746050
v 0.137500 1.831372 0.764992
v 0.137500 1.850314 0.780537
v 0.137500 1.871924 0.792089
v 0.137500 1.895374 0.799202
v 0.025497 1.895374 0.799202
v 0.025497 1.919760 0.801603
v 0.025497 1.944146 0.799202
v 0.025497 1.989206 0.780537
v 0.025497 1.871924 0.792089
v 0.025497 1.967595 0.792089
v 0.025497 1.831372 0.764992
v 0.025497 1.850314 0.780537
v 0.025497 2.042358 0.652217
v 0.025497 2.008148 0.764992
v 0.025497 2.035245 0.724439
v 0.025497 1.831372 0.588215
v 0.025497 1.815826 0.746050
v 0.025497 2.023694 0.746050
v 0.025497 2.044760 0.676604
v 0.025497 1.944146 0.554005
v 0.025497 1.794760 0.676603
v 0.025497 1.804275 0.724439
v 0.025497 2.042358 0.700990
v 0.025497 2.008148 0.588215
v 0.025497 1.895374 0.554005
v 0.025497 1.804275 0.628768
v 0.025497 1.797162 0.700990
v 0.025497 2.035245 0.628768
v 0.025497 2.023694 0.607157
v 0.025497 1.967595 0.561119
v 0.025497 1.919760 0.551604
v 0.025497 1.871924 0.561119
v 0.025497 1.815826 0.607157
v 0.025497 1.797162 0.652217
v 0.025497 1.989206 0.572670
v 0.025497 1.850314 0.572670
vt 0.000000 0.000000
vt 0.333333 0.333333
vt 0.666667 0.333333
vt 0.666667 0.666667
vt 0.333333 0.666667
vt 0.000000 0.666667
vt 0.000000 0.333333
vt 1.000000 0.000000
vt 1.000000 0.333333
vt 0.666667 0.000000
vt 0.333333 1.000000
vt 0.000000 1.000000
vt 0.333333 0.000000
vt 0.021675 0.065426
vt 0.019833 0.065730
vt 0.018062 0.066628
vt 0.016430 0.068087
vt 0.014999 0.070050
vt 0.013825 0.072443
vt 0.012953 0.075172
vt 0.012416 0.078134
vt 0.012234 0.081213
vt 0.012416 0.084293
vt 0.012953 0.087255
vt 0.013825 0.089984
vt 0.014999 0.092377
vt 0.016430 0.094340
vt 0.018062 0.095799
vt 0.019833 0.096697
vt 0.021675 0.097001
vt 0.023517 0.096697
vt 0.025288 0.095799
vt 0.026920 0.094340
vt 0.028351 0.092377
vt 0.029525 0.089984
vt 0.030397 0.087255
vt 0.030934 0.084293
vt 0.031116 0.081213
vt 0.030934 0.078134
vt 0.030397 0.075172
vt 0.029525 0.072443
vt 0.028351 0.070050
vt 0.026920 0.068087
vt 0.025288 0.066628
vt 0.023517 0.065730
vn 0.000000 0.098000 -0.995200
vn 0.000000 -0.098000 -0.995200
vn 0.000000 0.290300 -0.956900
vn 0.000000 -0.290300 -0.956900
vn 0.000000 0.471400 -0.881900
vn 0.000000 -0.471400 -0.881900
vn 0.000000 0.634400 -0.773000
vn 0.000000 -0.634400 -0.773000
vn 0.000000 0.773000 -0.634400
vn 0.000000 -0.773000 -0.634400
vn 1.000000 0.000000 -0.000000
vn 0.000000 0.881900 -0.471400
vn 0.000000 -0.881900 -0.471400
vn 0.000000 -0.995200 0.098000
vn 0.000000 0.956900 -0.290300
vn 0.000000 -0.956900 -0.290300
vn 0.000000 -0.995200 -0.098000
vn 0.000000 -0.956900 0.290300
vn 0.000000 0.995200 -0.098000
vn 0.000000 -0.881900 0.471400
vn 0.000000 -0.773000 0.634400
vn 0.000000 -0.290300 0.956900
vn 0.000000 -0.098000 0.995200
vn 0.000000 0.098000 0.995200
vn 0.000000 0.290300 0.956900
vn 0.000000 0.773000 0.634400
vn 0.000000 0.881900 0.471400
vn 0.000000 0.956900 0.290300
vn 0.000000 0.995200 0.098000
vn 0.000000 -0.634400 0.773000
vn 0.000000 -0.471400 0.881900
vn 0.000000 0.471400 0.881900
vn 0.000000 0.634400 0.773000
vn -1.000000 0.000000 0.000000
vn 0.000000 0.000000 -1.000000
vn 0.000000 -1.000000 0.000000
vn 0.000000 0.000000 1.000000
vn 0.000000 1.000000 0.000000
usemtl Material.001
s off
f 9/1/1 40/1/1 41/1/1 42/1/1
f 10/1/2 9/1/2 42/1/2 43/1/2
f 40/1/3 39/1/3 45/1/3 41/1/3
f 11/1/4 10/1/4 43/1/4 46/1/4
f 39/1/5 38/1/5 48/1/5 45/1/5
f 12/1/6 11/1/6 46/1/6 44/1/6
f 38/1/7 37/1/7 47/1/7 48/1/7
f 13/1/8 12/1/8 44/1/8 50/1/8
f 37/1/9 36/1/9 53/1/9 47/1/9
f 14/1/10 13/1/10 50/1/10 54/1/10
f 53/1/11 58/1/11 63/1/11 57/1/11 70/1/11 62/1/11 69/1/11 52/1/11 72/1/11 68/1/11 61/1/11 67/1/11 56/1/11 66/1/11 71/1/11 60/1/11 65/1/11 64/1/11 49/1/11 55/1/11 59/1/11 51/1/11 54/1/11 50/1/11 44/1/11 46/1/11 43/1/11 42/1/11 41/1/11 45/1/11 48/1/11 47/1/11
f 36/1/12 35/1/12 58/1/12 53/1/12
f 15/1/13 14/1/13 54/1/13 51/1/13
f 18/1/14 17/1/14 55/1/14 49/1/14
f 35/1/15 34/1/15 63/1/15 58/1/15
f 16/1/16 15/1/16 51/1/16 59/1/16
f 17/1/17 16/1/17 59/1/17 55/1/17
f 19/1/18 18/1/18 49/1/18 64/1/18
f 34/1/19 33/1/19 57/1/19 63/1/19
f 20/1/20 19/1/20 64/1/20 65/1/20
f 21/1/21 20/1/21 65/1/21 60/1/21
f 24/1/22 23/1/22 66/1/22 56/1/22
f 25/1/23 24/1/23 56/1/23 67/1/23
f 26/1/24 25/1/24 67/1/24 61/1/24
f 27/1/25 26/1/25 61/1/25 68/1/25
f 30/1/26 29/1/26 52/1/26 69/1/26
f 31/1/27 30/1/27 69/1/27 62/1/27
f 32/1/28 31/1/28 62/1/28 70/1/28
f 33/1/29 32/1/29 70/1/29 57/1/29
f 22/1/30 21/1/30 60/1/30 71/1/30
f 23/1/31 22/1/31 71/1/31 66/1/31
f 28/1/32 27/1/32 68/1/32 72/1/32
f 29/1/33 28/1/33 72/1/33 52/1/33
usemtl Material.001_wood.bmp
f 1/2/34 2/3/34 3/4/34
f 4/5/34 1/2/34 3/4/34
f 1/6/35 5/7/35 2/5/35
f 3/8/36 2/9/36 6/10/36
f 4/10/37 3/3/37 6/2/37
f 5/5/38 1/11/38 4/12/38
f 5/7/35 7/2/35 2/5/35
f 2/9/36 7/3/36 6/10/36
f 8/13/37 4/10/37 6/2/37
f 8/6/38 5/5/38 4/12/38
f 8/1/11 9/14/11 10/15/11 11/16/11 12/17/11 13/18/11 14/19/11 15/20/11 16/21/11 17/22/11 18/23/11 19/24/11 20/25/11 21/26/11 22/27/11 23/28/11 24/29/11 25/30/11 7/2/11 5/7/11
f 8/1/11 7/2/11 25/30/11 26/31/11 27/32/11 28/33/11 29/34/11 30/35/11 31/36/11 32/37/11 33/38/11 34/39/11 35/40/11 36/41/11 37/42/11 38/43/11 39/44/11 40/45/11 9/14/11
f 8/1/11 6/13/11 7/2/11
