# Blender v2.74 (sub 0) OBJ File: 'D.blend'
# www.blender.org
mtllib D.mtl
o Rectangle47
v 1.311677 0.000004 -2.001004
v 1.342319 0.025715 -2.001004
v 1.349265 0.013685 -2.001004
v 1.351677 0.000004 -2.001004
v 1.318623 0.039396 -2.001004
v 1.331677 0.034645 -2.001004
v 1.291677 0.034645 -2.001004
v 1.304731 0.039396 -2.001004
v 1.274089 0.013685 -2.001004
v 1.281035 0.025715 -2.001004
v 1.274089 -0.013677 -2.001004
v 1.271677 0.000004 -2.001004
v 1.291677 -0.034637 -2.001004
v 1.281035 -0.025708 -2.001004
v 1.318623 -0.039388 -2.001004
v 1.304731 -0.039388 -2.001004
v 1.342319 -0.025708 -2.001004
v 1.331677 -0.034637 -2.001004
v 1.349265 -0.013677 -2.001004
v 1.349265 0.013685 -2.000004
v 1.351677 0.000004 -2.000004
v 1.342319 0.025715 -2.000004
v 1.331677 0.034645 -2.000004
v 1.318623 0.039396 -2.000004
v 1.304731 0.039396 -2.000004
v 1.291677 0.034645 -2.000004
v 1.281035 0.025715 -2.000004
v 1.274089 0.013685 -2.000004
v 1.271677 0.000004 -2.000004
v 1.274089 -0.013677 -2.000004
v 1.281035 -0.025708 -2.000004
v 1.291677 -0.034637 -2.000004
v 1.304731 -0.039388 -2.000004
v 1.318623 -0.039388 -2.000004
v 1.331677 -0.034637 -2.000004
v 1.342319 -0.025708 -2.000004
v 1.349265 -0.013677 -2.000004
v 1.311677 0.000004 -2.000004
v -1.311707 0.000004 -2.001004
v -1.281064 0.025715 -2.001004
v -1.274119 0.013685 -2.001004
v -1.271706 0.000004 -2.001004
v -1.304761 0.039396 -2.001004
v -1.291707 0.034645 -2.001004
v -1.331707 0.034645 -2.001004
v -1.318652 0.039396 -2.001004
v -1.349294 0.013685 -2.001004
v -1.342349 0.025715 -2.001004
v -1.349294 -0.013677 -2.001004
v -1.351707 0.000004 -2.001004
v -1.331707 -0.034637 -2.001004
v -1.342349 -0.025708 -2.001004
v -1.304761 -0.039388 -2.001004
v -1.318652 -0.039388 -2.001004
v -1.281064 -0.025708 -2.001004
v -1.291707 -0.034637 -2.001004
v -1.274119 -0.013677 -2.001004
v -1.274119 0.013685 -2.000004
v -1.271706 0.000004 -2.000004
v -1.281064 0.025715 -2.000004
v -1.291707 0.034645 -2.000004
v -1.304761 0.039396 -2.000004
v -1.318652 0.039396 -2.000004
v -1.331707 0.034645 -2.000004
v -1.342349 0.025715 -2.000004
v -1.349294 0.013685 -2.000004
v -1.351707 0.000004 -2.000004
v -1.349294 -0.013677 -2.000004
v -1.342349 -0.025708 -2.000004
v -1.331707 -0.034637 -2.000004
v -1.318652 -0.039388 -2.000004
v -1.304761 -0.039388 -2.000004
v -1.291707 -0.034637 -2.000004
v -1.281064 -0.025708 -2.000004
v -1.274119 -0.013677 -2.000004
v -1.311707 0.000004 -2.000004
v -1.999802 0.074939 1.999995
v 2.000198 0.074939 1.999995
v 2.000198 0.074939 -2.000005
v -1.999802 0.074939 -2.000005
v -1.999802 -0.075061 1.999995
v -1.999802 -0.075061 -2.000005
v 2.000198 -0.075061 1.999995
v 2.000198 -0.075061 -2.000005
v 1.311677 0.000004 1.999995
v 1.342319 0.025715 1.999995
v 1.349265 0.013685 1.999995
v 1.351677 0.000004 1.999995
v 1.318623 0.039396 1.999995
v 1.331677 0.034645 1.999995
v 1.291677 0.034645 1.999995
v 1.304731 0.039396 1.999995
v 1.274089 0.013685 1.999995
v 1.281035 0.025715 1.999995
v 1.274089 -0.013677 1.999995
v 1.271677 0.000004 1.999995
v 1.291677 -0.034637 1.999995
v 1.281035 -0.025708 1.999995
v 1.318623 -0.039388 1.999995
v 1.304731 -0.039388 1.999995
v 1.342319 -0.025708 1.999995
v 1.331677 -0.034637 1.999995
v 1.349265 -0.013677 1.999995
v 1.349265 0.013685 2.000995
v 1.351677 0.000004 2.000995
v 1.342319 0.025715 2.000995
v 1.331677 0.034645 2.000995
v 1.318623 0.039396 2.000995
v 1.304731 0.039396 2.000995
v 1.291677 0.034645 2.000995
v 1.281035 0.025715 2.000995
v 1.274089 0.013685 2.000995
v 1.271677 0.000004 2.000995
v 1.274089 -0.013677 2.000995
v 1.281035 -0.025708 2.000995
v 1.291677 -0.034637 2.000995
v 1.304731 -0.039388 2.000995
v 1.318623 -0.039388 2.000995
v 1.331677 -0.034637 2.000995
v 1.342319 -0.025708 2.000995
v 1.349265 -0.013677 2.000995
v 1.311677 0.000004 2.000995
v -1.311707 0.000004 1.999995
v -1.281064 0.025715 1.999995
v -1.274119 0.013685 1.999995
v -1.271706 0.000004 1.999995
v -1.304761 0.039396 1.999995
v -1.291707 0.034645 1.999995
v -1.331707 0.034645 1.999995
v -1.318652 0.039396 1.999995
v -1.349294 0.013685 1.999995
v -1.342349 0.025715 1.999995
v -1.349294 -0.013677 1.999995
v -1.351707 0.000004 1.999995
v -1.331707 -0.034637 1.999995
v -1.342349 -0.025708 1.999995
v -1.304761 -0.039388 1.999995
v -1.318652 -0.039388 1.999995
v -1.281064 -0.025708 1.999995
v -1.291707 -0.034637 1.999995
v -1.274119 -0.013677 1.999995
v -1.274119 0.013685 2.000995
v -1.271706 0.000004 2.000995
v -1.281064 0.025715 2.000995
v -1.291707 0.034645 2.000995
v -1.304761 0.039396 2.000995
v -1.318652 0.039396 2.000995
v -1.331707 0.034645 2.000995
v -1.342349 0.025715 2.000995
v -1.349294 0.013685 2.000995
v -1.351707 0.000004 2.000995
v -1.349294 -0.013677 2.000995
v -1.342349 -0.025708 2.000995
v -1.331707 -0.034637 2.000995
v -1.318652 -0.039388 2.000995
v -1.304761 -0.039388 2.000995
v -1.291707 -0.034637 2.000995
v -1.281064 -0.025708 2.000995
v -1.274119 -0.013677 2.000995
v -1.311707 0.000004 2.000995
vt 0.500000 0.000000
vt 0.500000 0.500000
vt 0.000000 0.500000
vt 0.056250 1.000000
vt 0.056250 0.500000
vt 0.075000 0.500000
vt 1.000000 0.000000
vt 1.000000 0.500000
vt 0.000000 1.000000
vt 0.018750 0.500000
vt 0.037500 1.000000
vt 0.037500 0.500000
vt 0.018750 1.000000
vt 0.018750 0.500000
vt 0.000000 0.000000
vt 0.075000 1.000000
vt 0.119316 0.505000
vt 0.116102 0.501170
vt 0.117606 0.500302
vt 0.114392 0.504132
vt 0.114986 0.502500
vt 0.114986 0.507500
vt 0.114392 0.505868
vt 0.117606 0.509699
vt 0.116102 0.508830
vt 0.121026 0.509699
vt 0.119316 0.510000
vt 0.123646 0.507500
vt 0.122530 0.508830
vt 0.124240 0.504132
vt 0.124240 0.505868
vt 0.122530 0.501170
vt 0.123646 0.502500
vt 0.119316 0.500000
vt 0.121026 0.500302
vt 0.154909 0.501504
vt 0.155034 0.501504
vt 0.155034 0.503214
vt 0.154909 0.500000
vt 0.155034 0.500000
vt 0.154159 0.506330
vt 0.154284 0.506330
vt 0.154284 0.507661
vt 0.154159 0.504699
vt 0.154284 0.504699
vt 0.154159 0.502962
vt 0.154284 0.502962
vt 0.154159 0.501330
vt 0.154284 0.501330
vt 0.154159 0.500000
vt 0.154284 0.500000
vt 0.154784 0.501504
vt 0.154784 0.500000
vt 0.154909 0.503214
vt 0.154784 0.503214
vt 0.154909 0.504924
vt 0.154784 0.504924
vt 0.154909 0.506428
vt 0.154784 0.506428
vt 0.153784 0.506330
vt 0.153909 0.506330
vt 0.153909 0.507661
vt 0.153784 0.504699
vt 0.153909 0.504699
vt 0.153784 0.502962
vt 0.153909 0.502962
vt 0.153784 0.501330
vt 0.153909 0.501330
vt 0.153784 0.500000
vt 0.153909 0.500000
vt 0.155034 0.504924
vt 0.155034 0.506428
vt 0.148860 0.505000
vt 0.147150 0.500302
vt 0.148860 0.500000
vt 0.150570 0.500302
vt 0.152074 0.501170
vt 0.153190 0.502500
vt 0.153784 0.504132
vt 0.153784 0.505868
vt 0.153190 0.507500
vt 0.152074 0.508830
vt 0.150570 0.509699
vt 0.148860 0.510000
vt 0.147150 0.509699
vt 0.145646 0.508830
vt 0.144530 0.507500
vt 0.143936 0.505868
vt 0.143936 0.504132
vt 0.144530 0.502500
vt 0.145646 0.501170
vt 0.109468 0.505000
vt 0.106254 0.501170
vt 0.107758 0.500302
vt 0.104544 0.504132
vt 0.105138 0.502500
vt 0.105138 0.507500
vt 0.104544 0.505868
vt 0.107758 0.509699
vt 0.106254 0.508830
vt 0.111178 0.509699
vt 0.109468 0.510000
vt 0.113798 0.507500
vt 0.112682 0.508830
vt 0.112682 0.501170
vt 0.113798 0.502500
vt 0.109468 0.500000
vt 0.111178 0.500302
vt 0.155159 0.504924
vt 0.155159 0.506428
vt 0.154034 0.506330
vt 0.154034 0.507661
vt 0.154034 0.504699
vt 0.154034 0.502962
vt 0.154034 0.501330
vt 0.154034 0.500000
vt 0.155284 0.501504
vt 0.155159 0.501504
vt 0.155159 0.500000
vt 0.155284 0.503214
vt 0.155159 0.503214
vt 0.155284 0.504924
vt 0.155284 0.506428
vt 0.154159 0.507661
vt 0.139012 0.505000
vt 0.137302 0.500302
vt 0.139012 0.500000
vt 0.140722 0.500302
vt 0.142226 0.501170
vt 0.143342 0.502500
vt 0.143342 0.507500
vt 0.142226 0.508830
vt 0.140722 0.509699
vt 0.139012 0.510000
vt 0.137302 0.509699
vt 0.135798 0.508830
vt 0.134682 0.507500
vt 0.134088 0.505868
vt 0.134088 0.504132
vt 0.134682 0.502500
vt 0.135798 0.501170
vt 0.099620 0.505000
vt 0.096406 0.501170
vt 0.097910 0.500302
vt 0.094696 0.504132
vt 0.095290 0.502500
vt 0.095290 0.507500
vt 0.094696 0.505868
vt 0.097910 0.509699
vt 0.096406 0.508830
vt 0.101330 0.509699
vt 0.099620 0.510000
vt 0.103950 0.507500
vt 0.102834 0.508830
vt 0.102834 0.501170
vt 0.103950 0.502500
vt 0.099620 0.500000
vt 0.101330 0.500302
vt 0.155784 0.504924
vt 0.155659 0.504924
vt 0.155659 0.503214
vt 0.155784 0.506428
vt 0.155659 0.506428
vt 0.154409 0.506330
vt 0.154534 0.506330
vt 0.154534 0.507661
vt 0.154409 0.504699
vt 0.154534 0.504699
vt 0.154409 0.502962
vt 0.154534 0.502962
vt 0.154409 0.501330
vt 0.154534 0.501330
vt 0.154409 0.500000
vt 0.154534 0.500000
vt 0.155534 0.501504
vt 0.155410 0.501504
vt 0.155410 0.500000
vt 0.155534 0.503214
vt 0.155409 0.503214
vt 0.155534 0.504924
vt 0.155410 0.504924
vt 0.155534 0.506428
vt 0.155410 0.506428
vt 0.154659 0.506330
vt 0.154784 0.506330
vt 0.154784 0.507661
vt 0.154659 0.504699
vt 0.154784 0.504699
vt 0.154659 0.502962
vt 0.154784 0.502962
vt 0.154659 0.501330
vt 0.154784 0.501330
vt 0.154659 0.500000
vt 0.155784 0.501504
vt 0.155659 0.501504
vt 0.155659 0.500000
vt 0.155784 0.503214
vt 0.129164 0.505000
vt 0.127454 0.500302
vt 0.129164 0.500000
vt 0.130874 0.500302
vt 0.132378 0.501170
vt 0.133494 0.502500
vt 0.133494 0.507500
vt 0.132378 0.508830
vt 0.130874 0.509699
vt 0.129164 0.510000
vt 0.127454 0.509699
vt 0.125950 0.508830
vt 0.124834 0.507500
vt 0.124834 0.502500
vt 0.125950 0.501170
vt 0.089772 0.505000
vt 0.086558 0.501170
vt 0.088062 0.500302
vt 0.084848 0.504132
vt 0.085442 0.502500
vt 0.085442 0.507500
vt 0.084848 0.505868
vt 0.088062 0.509699
vt 0.086558 0.508830
vt 0.091482 0.509699
vt 0.089772 0.510000
vt 0.094102 0.507500
vt 0.092986 0.508830
vt 0.092986 0.501170
vt 0.094102 0.502500
vt 0.089772 0.500000
vt 0.091482 0.500302
vt 0.154409 0.507661
vt 0.155535 0.500000
vt 0.154659 0.507661
vt 0.155285 0.500000
vt 0.079924 0.505000
vt 0.078214 0.500302
vt 0.079924 0.500000
vt 0.081634 0.500302
vt 0.083138 0.501170
vt 0.084254 0.502500
vt 0.084254 0.507500
vt 0.083138 0.508830
vt 0.081634 0.509699
vt 0.079924 0.510000
vt 0.078214 0.509699
vt 0.076710 0.508830
vt 0.075594 0.507500
vt 0.075000 0.505868
vt 0.075000 0.504132
vt 0.075594 0.502500
vt 0.076710 0.501170
vt 0.153784 0.507661
vt 0.155784 0.500000
vn 0.577300 0.577300 0.577300
vn 0.577300 0.577300 -0.577300
vn -0.577300 0.577300 -0.577300
vn -0.577300 0.577300 0.577300
vn -0.577300 -0.577300 -0.577300
vn -0.577300 -0.577300 0.577300
vn 0.577300 -0.577300 -0.577300
vn 0.577300 -0.577300 0.577300
vn 0.000000 0.000000 -1.000000
vn 0.568700 0.477100 -0.670000
vn 0.697500 0.253900 -0.670000
vn 0.128900 0.731000 -0.670000
vn 0.371200 0.642900 -0.670000
vn -0.371200 0.642900 -0.670000
vn -0.128900 0.731000 -0.670000
vn -0.697600 0.253900 -0.670000
vn -0.568600 0.477200 -0.670000
vn -0.697600 -0.253900 -0.670000
vn -0.742300 0.000000 -0.670000
vn -0.371200 -0.642900 -0.670000
vn -0.568700 -0.477200 -0.670000
vn 0.128900 -0.731000 -0.670000
vn -0.128900 -0.731000 -0.670000
vn 0.568700 -0.477200 -0.670000
vn 0.371200 -0.642900 -0.670000
vn 0.742300 0.000000 -0.670000
vn 0.697600 -0.253900 -0.670000
vn 0.697500 0.253900 0.670000
vn 0.742300 0.000000 0.670000
vn 0.568700 0.477100 0.670000
vn 0.371200 0.642900 0.670000
vn 0.128900 0.731000 0.670000
vn -0.128900 0.731000 0.670000
vn -0.371200 0.642900 0.670000
vn -0.568600 0.477200 0.670000
vn -0.697600 0.253900 0.670000
vn -0.742300 0.000000 0.670000
vn -0.697600 -0.253900 0.670000
vn -0.568700 -0.477100 0.670000
vn -0.371200 -0.642900 0.670000
vn -0.128900 -0.731000 0.670000
vn 0.128900 -0.731000 0.670000
vn 0.371200 -0.642900 0.670000
vn 0.568700 -0.477100 0.670000
vn 0.697600 -0.253900 0.670000
vn 0.000000 0.000000 1.000000
vn 0.568700 0.477200 0.670000
vn -0.371100 0.642900 0.670000
vn -0.568700 -0.477200 0.670000
vn 0.568700 -0.477200 0.670000
vn 0.568600 0.477200 -0.670000
vn 0.697600 0.253900 -0.670000
vn -0.371100 0.642900 -0.670000
vn -0.568700 0.477100 -0.670000
vn -0.371100 -0.642900 -0.670000
vn -0.568600 -0.477200 -0.670000
vn 0.568600 -0.477200 -0.670000
vn 0.371100 -0.642900 -0.670000
vn 0.697600 0.253900 0.670000
vn 0.568600 0.477200 0.670000
vn -0.568700 0.477100 0.670000
vn -0.568600 -0.477200 0.670000
vn -0.371100 -0.642900 0.670000
vn 0.371100 -0.642900 0.670000
vn 0.568600 -0.477200 0.670000
vn 0.371200 0.642800 0.670000
usemtl wire_229154215
s 1
f 78/1/1 79/2/2 80/3/3
f 77/4/4 80/5/3 82/6/5
f 81/7/6 82/8/5 84/2/7
f 83/9/8 84/3/7 79/10/2
f 80/11/3 79/12/2 84/5/7
f 77/11/4 81/13/6 83/14/8
f 77/15/4 78/1/1 80/3/3
f 81/16/6 77/4/4 82/6/5
f 83/1/8 81/7/6 84/2/7
f 78/13/1 83/9/8 79/10/2
f 82/4/5 80/11/3 84/5/7
f 78/12/1 77/11/4 83/14/8
usemtl wire_008110135
f 1/17/9 2/18/10 3/19/11
f 1/17/9 5/20/12 6/21/13
f 1/17/9 7/22/14 8/23/15
f 1/17/9 9/24/16 10/25/17
f 1/17/9 11/26/18 12/27/19
f 1/17/9 13/28/20 14/29/21
f 1/17/9 15/30/22 16/31/23
f 1/17/9 17/32/24 18/33/25
f 1/17/9 4/34/26 19/35/27
f 3/36/11 20/37/28 21/38/29
f 2/39/10 22/40/30 20/37/28
f 6/41/13 23/42/31 22/43/30
f 5/44/12 24/45/32 23/42/31
f 8/46/15 25/47/33 24/45/32
f 7/48/14 26/49/34 25/47/33
f 10/50/17 27/51/35 26/49/34
f 9/36/16 28/52/36 27/53/35
f 12/54/19 29/55/37 28/52/36
f 11/56/18 30/57/38 29/55/37
f 14/58/21 31/59/39 30/57/38
f 13/60/20 32/61/40 31/62/39
f 16/63/23 33/64/41 32/61/40
f 15/65/22 34/66/42 33/64/41
f 18/67/25 35/68/43 34/66/42
f 17/69/24 36/70/44 35/68/43
f 19/56/27 37/71/45 36/72/44
f 4/54/26 21/38/29 37/71/45
f 38/73/46 37/74/45 21/75/29
f 38/73/46 20/76/28 22/77/30
f 38/73/46 23/78/31 24/79/32
f 38/73/46 25/80/33 26/81/34
f 38/73/46 27/82/35 28/83/36
f 38/73/46 29/84/37 30/85/38
f 38/73/46 31/86/39 32/87/40
f 38/73/46 33/88/41 34/89/42
f 38/73/46 35/90/43 36/91/44
f 39/92/9 40/93/10 41/94/11
f 39/92/9 43/95/12 44/96/13
f 39/92/9 45/97/14 46/98/15
f 39/92/9 47/99/16 48/100/17
f 39/92/9 49/101/18 50/102/19
f 39/92/9 51/103/20 52/104/21
f 39/92/9 53/20/22 54/23/23
f 39/92/9 55/105/24 56/106/25
f 39/92/9 42/107/26 57/108/27
f 41/109/11 58/71/28 59/38/29
f 40/110/10 60/72/47 58/71/28
f 44/61/13 61/111/31 60/112/47
f 43/64/12 62/113/32 61/111/31
f 46/66/15 63/114/33 62/113/32
f 45/68/14 64/115/48 63/114/33
f 48/70/17 65/116/35 64/115/48
f 47/117/16 66/118/36 65/119/35
f 50/120/19 67/121/37 66/118/36
f 49/122/18 68/109/38 67/121/37
f 52/123/21 69/110/49 68/109/38
f 51/111/20 70/41/40 69/124/49
f 54/113/23 71/44/41 70/41/40
f 53/114/22 72/46/42 71/44/41
f 56/115/25 73/48/43 72/46/42
f 55/116/24 74/50/50 73/48/43
f 57/118/27 75/37/45 74/40/50
f 42/121/26 59/38/29 75/37/45
f 76/125/46 75/126/45 59/127/29
f 76/125/46 58/128/28 60/129/47
f 76/125/46 61/130/31 62/89/32
f 76/125/46 63/88/33 64/131/48
f 76/125/46 65/132/35 66/133/36
f 76/125/46 67/134/37 68/135/38
f 76/125/46 69/136/49 70/137/40
f 76/125/46 71/138/41 72/139/42
f 76/125/46 73/140/43 74/141/50
f 85/142/9 86/143/51 87/144/52
f 85/142/9 89/145/12 90/146/13
f 85/142/9 91/147/53 92/148/15
f 85/142/9 93/149/16 94/150/54
f 85/142/9 95/151/18 96/152/19
f 85/142/9 97/153/55 98/154/56
f 85/142/9 99/95/22 100/98/23
f 85/142/9 101/155/57 102/156/58
f 85/142/9 88/157/26 103/158/27
f 87/159/52 104/160/59 105/161/29
f 86/162/51 106/163/60 104/160/59
f 90/164/13 107/165/31 106/166/60
f 89/167/12 108/168/32 107/165/31
f 92/169/15 109/170/33 108/168/32
f 91/171/53 110/172/48 109/170/33
f 94/173/54 111/174/61 110/172/48
f 93/175/16 112/176/36 111/177/61
f 96/178/19 113/179/37 112/176/36
f 95/180/18 114/181/38 113/179/37
f 98/182/56 115/183/62 114/181/38
f 97/184/55 116/185/63 115/186/62
f 100/187/23 117/188/41 116/185/63
f 99/189/22 118/190/42 117/188/41
f 102/191/58 119/192/64 118/190/42
f 101/193/57 120/53/65 119/192/64
f 103/194/27 121/195/45 120/196/65
f 88/197/26 105/161/29 121/195/45
f 122/198/46 121/199/45 105/200/29
f 122/198/46 104/201/59 106/202/60
f 122/198/46 107/203/31 108/139/32
f 122/198/46 109/138/33 110/204/48
f 122/198/46 111/205/61 112/206/36
f 122/198/46 113/207/37 114/208/38
f 122/198/46 115/209/62 116/210/63
f 122/198/46 117/31/41 118/30/42
f 122/198/46 119/211/64 120/212/65
f 123/213/9 124/214/51 125/215/52
f 123/213/9 127/216/12 128/217/13
f 123/213/9 129/218/53 130/219/15
f 123/213/9 131/220/16 132/221/54
f 123/213/9 133/222/18 134/223/19
f 123/213/9 135/224/55 136/225/56
f 123/213/9 137/145/22 138/148/23
f 123/213/9 139/226/57 140/227/58
f 123/213/9 126/228/26 141/229/27
f 125/181/52 142/122/59 143/120/29
f 124/183/51 144/123/60 142/122/59
f 128/171/13 145/49/66 144/51/60
f 127/169/12 146/47/32 145/49/66
f 130/167/15 147/45/33 146/47/32
f 129/164/53 148/42/48 147/45/33
f 132/230/54 149/43/61 148/42/48
f 131/195/16 150/175/36 149/231/61
f 134/161/19 151/178/37 150/175/36
f 133/160/18 152/180/38 151/178/37
f 136/163/56 153/182/62 152/180/38
f 135/165/55 154/184/63 153/232/62
f 138/168/23 155/187/41 154/184/63
f 137/170/22 156/189/42 155/187/41
f 140/172/58 157/191/64 156/189/42
f 139/174/57 158/193/65 157/191/64
f 141/176/27 159/117/45 158/233/65
f 126/179/26 143/120/29 159/117/45
f 160/234/46 159/235/45 143/236/29
f 160/234/46 142/237/59 144/238/60
f 160/234/46 145/239/66 146/216/32
f 160/234/46 147/219/33 148/240/48
f 160/234/46 149/241/61 150/242/36
f 160/234/46 151/243/37 152/244/38
f 160/234/46 153/245/62 154/246/63
f 160/234/46 155/247/41 156/248/42
f 160/234/46 157/249/64 158/250/65
f 4/34/26 1/17/9 3/19/11
f 2/18/10 1/17/9 6/21/13
f 5/20/12 1/17/9 8/23/15
f 7/22/14 1/17/9 10/25/17
f 9/24/16 1/17/9 12/27/19
f 11/26/18 1/17/9 14/29/21
f 13/28/20 1/17/9 16/31/23
f 15/30/22 1/17/9 18/33/25
f 17/32/24 1/17/9 19/35/27
f 4/54/26 3/36/11 21/38/29
f 3/36/11 2/39/10 20/37/28
f 2/124/10 6/41/13 22/43/30
f 6/41/13 5/44/12 23/42/31
f 5/44/12 8/46/15 24/45/32
f 8/46/15 7/48/14 25/47/33
f 7/48/14 10/50/17 26/49/34
f 10/39/17 9/36/16 27/53/35
f 9/36/16 12/54/19 28/52/36
f 12/54/19 11/56/18 29/55/37
f 11/56/18 14/58/21 30/57/38
f 14/251/21 13/60/20 31/62/39
f 13/60/20 16/63/23 32/61/40
f 16/63/23 15/65/22 33/64/41
f 15/65/22 18/67/25 34/66/42
f 18/67/25 17/69/24 35/68/43
f 17/58/24 19/56/27 36/72/44
f 19/56/27 4/54/26 37/71/45
f 20/76/28 38/73/46 21/75/29
f 23/78/31 38/73/46 22/77/30
f 25/80/33 38/73/46 24/79/32
f 27/82/35 38/73/46 26/81/34
f 29/84/37 38/73/46 28/83/36
f 31/86/39 38/73/46 30/85/38
f 33/88/41 38/73/46 32/87/40
f 35/90/43 38/73/46 34/89/42
f 37/74/45 38/73/46 36/91/44
f 42/107/26 39/92/9 41/94/11
f 40/93/10 39/92/9 44/96/13
f 43/95/12 39/92/9 46/98/15
f 45/97/14 39/92/9 48/100/17
f 47/99/16 39/92/9 50/102/19
f 49/101/18 39/92/9 52/104/21
f 51/103/20 39/92/9 54/23/23
f 53/20/22 39/92/9 56/106/25
f 55/105/24 39/92/9 57/108/27
f 42/121/26 41/109/11 59/38/29
f 41/109/11 40/110/10 58/71/28
f 40/62/10 44/61/13 60/112/47
f 44/61/13 43/64/12 61/111/31
f 43/64/12 46/66/15 62/113/32
f 46/66/15 45/68/14 63/114/33
f 45/68/14 48/70/17 64/115/48
f 48/233/17 47/117/16 65/119/35
f 47/117/16 50/120/19 66/118/36
f 50/120/19 49/122/18 67/121/37
f 49/122/18 52/123/21 68/109/38
f 52/112/21 51/111/20 69/124/49
f 51/111/20 54/113/23 70/41/40
f 54/113/23 53/114/22 71/44/41
f 53/114/22 56/115/25 72/46/42
f 56/115/25 55/116/24 73/48/43
f 55/119/24 57/118/27 74/40/50
f 57/118/27 42/121/26 75/37/45
f 58/128/28 76/125/46 59/127/29
f 61/130/31 76/125/46 60/129/47
f 63/88/33 76/125/46 62/89/32
f 65/132/35 76/125/46 64/131/48
f 67/134/37 76/125/46 66/133/36
f 69/136/49 76/125/46 68/135/38
f 71/138/41 76/125/46 70/137/40
f 73/140/43 76/125/46 72/139/42
f 75/126/45 76/125/46 74/141/50
f 88/157/26 85/142/9 87/144/52
f 86/143/51 85/142/9 90/146/13
f 89/145/12 85/142/9 92/148/15
f 91/147/53 85/142/9 94/150/54
f 93/149/16 85/142/9 96/152/19
f 95/151/18 85/142/9 98/154/56
f 97/153/55 85/142/9 100/98/23
f 99/95/22 85/142/9 102/156/58
f 101/155/57 85/142/9 103/158/27
f 88/197/26 87/159/52 105/161/29
f 87/159/52 86/162/51 104/160/59
f 86/230/51 90/164/13 106/166/60
f 90/164/13 89/167/12 107/165/31
f 89/167/12 92/169/15 108/168/32
f 92/169/15 91/171/53 109/170/33
f 91/171/53 94/173/54 110/172/48
f 94/231/54 93/175/16 111/177/61
f 93/175/16 96/178/19 112/176/36
f 96/178/19 95/180/18 113/179/37
f 95/180/18 98/182/56 114/181/38
f 98/232/56 97/184/55 115/186/62
f 97/184/55 100/187/23 116/185/63
f 100/187/23 99/189/22 117/188/41
f 99/189/22 102/191/58 118/190/42
f 102/191/58 101/193/57 119/192/64
f 101/252/57 103/194/27 120/196/65
f 103/194/27 88/197/26 121/195/45
f 104/201/59 122/198/46 105/200/29
f 107/203/31 122/198/46 106/202/60
f 109/138/33 122/198/46 108/139/32
f 111/205/61 122/198/46 110/204/48
f 113/207/37 122/198/46 112/206/36
f 115/209/62 122/198/46 114/208/38
f 117/31/41 122/198/46 116/210/63
f 119/211/64 122/198/46 118/30/42
f 121/199/45 122/198/46 120/212/65
f 126/228/26 123/213/9 125/215/52
f 124/214/51 123/213/9 128/217/13
f 127/216/12 123/213/9 130/219/15
f 129/218/53 123/213/9 132/221/54
f 131/220/16 123/213/9 134/223/19
f 133/222/18 123/213/9 136/225/56
f 135/224/55 123/213/9 138/148/23
f 137/145/22 123/213/9 140/227/58
f 139/226/57 123/213/9 141/229/27
f 126/179/26 125/181/52 143/120/29
f 125/181/52 124/183/51 142/122/59
f 124/173/51 128/171/13 144/51/60
f 128/171/13 127/169/12 145/49/66
f 127/169/12 130/167/15 146/47/32
f 130/167/15 129/164/53 147/45/33
f 129/164/53 132/230/54 148/42/48
f 132/196/54 131/195/16 149/231/61
f 131/195/16 134/161/19 150/175/36
f 134/161/19 133/160/18 151/178/37
f 133/160/18 136/163/56 152/180/38
f 136/166/56 135/165/55 153/232/62
f 135/165/55 138/168/23 154/184/63
f 138/168/23 137/170/22 155/187/41
f 137/170/22 140/172/58 156/189/42
f 140/172/58 139/174/57 157/191/64
f 139/177/57 141/176/27 158/233/65
f 141/176/27 126/179/26 159/117/45
f 142/237/59 160/234/46 143/236/29
f 145/239/66 160/234/46 144/238/60
f 147/219/33 160/234/46 146/216/32
f 149/241/61 160/234/46 148/240/48
f 151/243/37 160/234/46 150/242/36
f 153/245/62 160/234/46 152/244/38
f 155/247/41 160/234/46 154/246/63
f 157/249/64 160/234/46 156/248/42
f 159/235/45 160/234/46 158/250/65
