# Blender v2.74 (sub 0) OBJ File: '4.blend'
# www.blender.org
mtllib 4.mtl
o Text_Mesh
v 0.050000 0.312000 -0.471000
v 0.050000 0.224000 -0.471000
v 0.050000 0.224000 -0.398000
v 0.050000 -0.000000 -0.398000
v 0.050000 -0.000000 -0.300000
v 0.050000 0.224000 -0.300000
v 0.050000 0.224000 -0.011000
v 0.050000 0.269000 -0.011000
v 0.050000 0.691000 -0.356000
v 0.050000 0.691000 -0.398000
v 0.050000 0.312000 -0.398000
v 0.050000 0.312000 -0.300000
v 0.050000 0.506000 -0.300000
v 0.050000 0.506000 -0.298000
v 0.050000 0.312000 -0.142000
v -0.050000 0.312000 -0.471000
v -0.050000 0.224000 -0.471000
v -0.050000 0.224000 -0.398000
v -0.050000 -0.000000 -0.398000
v -0.050000 -0.000000 -0.300000
v -0.050000 0.224000 -0.300000
v -0.050000 0.224000 -0.011000
v -0.050000 0.269000 -0.011000
v -0.050000 0.691000 -0.356000
v -0.050000 0.691000 -0.398000
v -0.050000 0.312000 -0.398000
v -0.050000 0.312000 -0.300000
v -0.050000 0.506000 -0.300000
v -0.050000 0.506000 -0.298000
v -0.050000 0.312000 -0.142000
v -0.050000 0.312000 -0.471000
v 0.050000 0.312000 -0.471000
v -0.050000 0.224000 -0.471000
v 0.050000 0.224000 -0.471000
v -0.050000 0.224000 -0.398000
v 0.050000 0.224000 -0.398000
v -0.050000 -0.000000 -0.398000
v 0.050000 -0.000000 -0.398000
v -0.050000 -0.000000 -0.300000
v 0.050000 -0.000000 -0.300000
v -0.050000 0.224000 -0.300000
v 0.050000 0.224000 -0.300000
v -0.050000 0.224000 -0.011000
v 0.050000 0.224000 -0.011000
v -0.050000 0.269000 -0.011000
v 0.050000 0.269000 -0.011000
v -0.050000 0.691000 -0.356000
v 0.050000 0.691000 -0.356000
v -0.050000 0.691000 -0.398000
v 0.050000 0.691000 -0.398000
v -0.050000 0.312000 -0.398000
v 0.050000 0.312000 -0.398000
v -0.050000 0.312000 -0.300000
v 0.050000 0.312000 -0.300000
v -0.050000 0.506000 -0.300000
v 0.050000 0.506000 -0.300000
v -0.050000 0.506000 -0.298000
v 0.050000 0.506000 -0.298000
v -0.050000 0.312000 -0.142000
v 0.050000 0.312000 -0.142000
vt 0.715312 0.753098
vt 0.999797 0.491444
vt 0.999838 0.519795
vt 0.879061 0.556062
vt 0.879025 0.553581
vt 0.744969 0.486197
vt 0.744884 0.663242
vt 0.744934 0.554125
vt 0.744969 0.435841
vt 0.684276 0.435841
vt 0.684276 0.753098
vt 0.681507 0.594470
vt 0.500162 0.594470
vt 0.681507 0.515132
vt 0.500162 0.515132
vt 0.499797 0.697495
vt 0.215312 0.435841
vt 0.499838 0.669144
vt 0.379061 0.632877
vt 0.379025 0.635358
vt 0.244969 0.702743
vt 0.244884 0.525697
vt 0.244935 0.634814
vt 0.244969 0.753099
vt 0.184276 0.753099
vt 0.184276 0.435841
vt 0.181507 0.594470
vt 0.181507 0.673809
vt 0.000162 0.594470
vt 0.000162 0.673809
vt 0.319038 0.417348
vt 0.232026 0.435517
vt 0.234995 0.348011
vt 0.291632 0.349765
vt 0.157671 0.427525
vt 0.179329 0.346301
vt 0.000162 0.287603
vt 0.089449 0.267330
vt 0.038359 0.165896
vt 0.116874 0.222501
vt 0.245145 0.126369
vt 0.275117 0.217365
vt 0.424525 0.000162
vt 0.433806 0.064362
vt 0.467049 0.000162
vt 0.454245 0.067042
vt 0.693430 0.270262
vt 0.596727 0.254164
vt 0.679560 0.326486
vt 0.589395 0.286469
vt 0.367429 0.393955
vt 0.333404 0.302889
vt 0.803851 0.090059
vt 0.803256 0.134781
vt 0.788107 0.256784
vt 0.693754 0.000162
vt 0.805075 0.135125
vt 0.791019 0.257136
vt 0.842466 0.101840
vt 0.986877 0.000162
vn 1.000000 0.000000 0.000000
vn 0.000000 0.000000 1.000000
vn -1.000000 0.000000 -0.000000
vn -0.673800 -0.738900 -0.000000
vn 0.000000 1.000000 0.000000
vn 0.000000 0.707100 -0.707100
vn 0.000000 -0.707100 -0.707100
vn 0.000000 -0.707100 0.707100
vn 0.000000 0.336000 0.941800
vn 0.000000 0.903600 0.428400
vn 0.000000 0.707100 0.707100
vn 0.000000 -0.901800 -0.432100
vn 0.000000 0.432100 -0.901800
usemtl None
s off
f 8/1/1 10/2/1 9/3/1
f 8/1/1 14/4/1 10/2/1
f 14/4/1 13/5/1 10/2/1
f 13/5/1 11/6/1 10/2/1
f 8/1/1 15/7/1 14/4/1
f 12/8/1 11/6/1 13/5/1
f 8/1/1 12/8/1 15/7/1
f 8/1/1 11/6/1 12/8/1
f 8/1/1 1/9/1 11/6/1
f 8/1/1 2/10/1 1/9/1
f 7/11/1 2/10/1 8/1/1
f 6/12/1 2/10/1 7/11/1
f 5/13/1 3/14/1 6/12/1
f 3/14/2 2/10/2 6/12/2
f 5/13/1 4/15/1 3/14/1
f 25/16/3 23/17/3 24/18/3
f 29/19/3 23/17/3 25/16/3
f 28/20/3 29/19/3 25/16/3
f 26/21/3 28/20/3 25/16/3
f 30/22/3 23/17/3 29/19/3
f 26/21/3 27/23/3 28/20/3
f 27/23/3 23/17/3 30/22/3
f 26/21/3 23/17/3 27/23/3
f 16/24/3 23/17/3 26/21/3
f 17/25/3 23/17/3 16/24/3
f 17/25/3 22/26/3 23/17/3
f 17/25/4 21/27/4 22/26/4
f 18/28/3 20/29/3 21/27/3
f 17/25/5 18/28/5 21/27/5
f 19/30/3 20/29/3 18/28/3
s 1
f 32/31/6 34/32/7 33/33/7 31/34/6
f 34/32/7 36/35/7 35/36/7 33/33/7
f 36/35/7 38/37/7 37/38/7 35/36/7
f 38/37/7 40/39/8 39/40/8 37/38/7
f 40/39/8 42/41/8 41/42/8 39/40/8
f 42/41/8 44/43/8 43/44/8 41/42/8
f 44/43/8 46/45/9 45/46/9 43/44/8
f 46/45/9 48/47/10 47/48/10 45/46/9
f 48/47/10 50/49/6 49/50/6 47/48/10
f 50/49/6 52/51/6 51/52/6 49/50/6
f 52/51/6 32/31/6 31/34/6 51/52/6
f 54/53/11 56/54/8 55/55/8 53/56/11
f 56/54/8 58/57/12 57/58/12 55/55/8
f 58/57/12 60/59/13 59/60/13 57/58/12
f 60/59/13 54/53/11 53/56/11 59/60/13
