# Blender v2.74 (sub 0) OBJ File: 'cube.blend'
# www.blender.org
mtllib cube.mtl
o cube
v 1.000000 1.000000 -1.000000
v 1.000000 -1.000000 -1.000000
v -1.000000 -1.000000 -1.000000
v -1.000000 1.000000 -1.000000
v -1.000000 -1.000000 1.000000
v -1.000000 1.000000 1.000000
v 1.000000 -1.000000 1.000000
v 0.999999 1.000000 1.000001
vt 0.748573 0.750412
vt 0.749279 0.501284
vt 0.999110 0.501077
vt 0.999455 0.750380
vt 0.250471 0.500702
vt 0.249682 0.749677
vt 0.001085 0.750380
vt 0.001517 0.499994
vt 0.499422 0.500239
vt 0.500149 0.750166
vt 0.748355 0.998230
vt 0.500193 0.998728
vt 0.498993 0.250415
vt 0.748953 0.250920
vn 0.000000 0.000000 -1.000000
vn -1.000000 0.000000 0.000000
vn 0.000000 -0.000000 1.000000
vn 1.000000 0.000000 0.000000
vn 0.000000 1.000000 0.000000
vn 0.000000 -1.000000 -0.000000
usemtl Material_ray.png
s 1
f 1/1/1 2/2/1 3/3/1
f 1/1/1 3/3/1 4/4/1
f 5/5/2 6/6/2 4/7/2
f 5/5/2 4/7/2 3/8/2
f 7/9/3 8/10/3 5/5/3
f 8/10/3 6/6/3 5/5/3
f 2/2/4 1/1/4 7/9/4
f 1/1/4 8/10/4 7/9/4
f 1/1/5 4/11/5 8/10/5
f 4/11/5 6/12/5 8/10/5
f 2/2/6 7/9/6 5/13/6
f 2/2/6 5/13/6 3/14/6
o Cube
v 1.000000 -1.000000 -1.000000
v 1.000000 -1.000000 1.000000
v -1.000000 -1.000000 1.000000
v -1.000000 -1.000000 -1.000000
v 1.000000 1.000000 -0.999999
v 0.999999 1.000000 1.000001
v -1.000000 1.000000 1.000000
v -1.000000 1.000000 -1.000000
vt 1.000000 0.000000
vt 1.000000 1.000000
vt 0.000000 1.000000
vt 0.000000 0.000000
vn 0.000000 -1.000000 0.000000
vn 0.000000 1.000000 0.000000
vn 1.000000 0.000000 0.000000
vn -0.000000 0.000000 1.000000
vn -1.000000 -0.000000 -0.000000
vn 0.000000 0.000000 -1.000000
usemtl Material
s off
f 10/15/7 11/16/7 12/17/7
f 16/15/8 15/16/8 14/17/8
f 13/15/9 14/16/9 10/17/9
f 14/15/10 15/16/10 11/17/10
f 11/18/11 15/15/11 16/16/11
f 9/15/12 12/16/12 16/17/12
f 9/18/7 10/15/7 12/17/7
f 13/18/8 16/15/8 14/17/8
f 9/18/9 13/15/9 10/17/9
f 10/18/10 14/15/10 11/17/10
f 12/17/11 11/18/11 16/16/11
f 13/18/12 9/15/12 16/17/12
