# Blender v2.74 (sub 0) OBJ File: 'Plug.blend'
# www.blender.org
mtllib Plug.mtl
o Cylinder
v 0.000000 -0.359908 -1.000000
v 0.000000 0.359908 -1.000000
v 0.195090 -0.359908 -0.980785
v 0.195090 0.359908 -0.980785
v 0.382683 -0.359908 -0.923880
v 0.382683 0.359908 -0.923880
v 0.555570 -0.359908 -0.831470
v 0.555570 0.359908 -0.831470
v 0.707107 -0.359908 -0.707107
v 0.707107 0.359908 -0.707107
v 0.831470 -0.359908 -0.555570
v 0.831470 0.359908 -0.555570
v 0.923880 -0.359908 -0.382683
v 0.923880 0.359908 -0.382683
v 0.980785 -0.359908 -0.195090
v 0.980785 0.359908 -0.195090
v 1.000000 -0.359908 -0.000000
v 1.000000 0.359908 -0.000000
v 0.980785 -0.359908 0.195090
v 0.980785 0.359908 0.195090
v 0.923880 -0.359908 0.382683
v 0.923880 0.359908 0.382683
v 0.831470 -0.359908 0.555570
v 0.831470 0.359908 0.555570
v 0.707107 -0.359908 0.707107
v 0.707107 0.359908 0.707107
v 0.555570 -0.359908 0.831470
v 0.555570 0.359908 0.831470
v 0.382683 -0.359908 0.923880
v 0.382683 0.359908 0.923880
v 0.195090 -0.359908 0.980785
v 0.195090 0.359908 0.980785
v -0.000000 -0.359908 1.000000
v -0.000000 0.359908 1.000000
v -0.195091 -0.359908 0.980785
v -0.195091 0.359908 0.980785
v -0.382684 -0.359908 0.923879
v -0.382684 0.359908 0.923879
v -0.555571 -0.359908 0.831469
v -0.555571 0.359908 0.831469
v -0.707107 -0.359908 0.707106
v -0.707107 0.359908 0.707106
v -0.831470 -0.359908 0.555570
v -0.831470 0.359908 0.555570
v -0.923880 -0.359908 0.382683
v -0.923880 0.359908 0.382683
v -0.980785 -0.359908 0.195089
v -0.980785 0.359908 0.195089
v -1.000000 -0.359908 -0.000001
v -1.000000 0.359908 -0.000001
v -0.980785 -0.359908 -0.195091
v -0.980785 0.359908 -0.195091
v -0.923879 -0.359908 -0.382684
v -0.923879 0.359908 -0.382684
v -0.831469 -0.359908 -0.555571
v -0.831469 0.359908 -0.555571
v -0.707106 -0.359908 -0.707108
v -0.707106 0.359908 -0.707108
v -0.555569 -0.359908 -0.831470
v -0.555569 0.359908 -0.831470
v -0.382682 -0.359908 -0.923880
v -0.382682 0.359908 -0.923880
v -0.195089 -0.359908 -0.980786
v -0.195089 0.359908 -0.980786
vt 0.484082 0.000000
vt 0.516610 0.000000
vt 0.516610 0.500000
vt 0.547250 0.000000
vt 0.547250 0.500000
vt 0.574825 0.000000
vt 0.574825 0.500000
vt 0.598276 0.000000
vt 0.598276 0.500000
vt 0.616701 0.000000
vt 0.616701 0.500000
vt 0.574825 1.000000
vt 0.551374 1.000000
vt 0.551374 0.500000
vt 0.523799 1.000000
vt 0.523799 0.500000
vt 0.493159 1.000000
vt 0.493159 0.500000
vt 0.460632 1.000000
vt 0.460632 0.500000
vt 0.427467 1.000000
vt 0.427467 0.500000
vt 0.394940 1.000000
vt 0.394940 0.500000
vt 0.364300 1.000000
vt 0.364300 0.500000
vt 0.336725 1.000000
vt 0.336725 0.500000
vt 0.602400 0.500000
vt 0.602400 1.000000
vt 0.633040 0.500000
vt 0.633040 1.000000
vt 0.665568 0.500000
vt 0.665568 1.000000
vt 0.698732 0.500000
vt 0.698732 1.000000
vt 0.731259 0.500000
vt 0.731260 1.000000
vt 0.761899 0.500000
vt 0.761900 1.000000
vt 0.789475 0.500000
vt 0.789475 1.000000
vt 0.820115 0.500000
vt 0.820115 1.000000
vt 0.852642 0.500000
vt 0.852642 1.000000
vt 0.885807 0.500000
vt 0.885807 1.000000
vt 0.918334 0.500000
vt 0.918334 1.000000
vt 0.948974 0.500000
vt 0.948974 1.000000
vt 0.976549 0.500000
vt 0.976549 1.000000
vt 1.000000 0.500000
vt 1.000000 1.000000
vt 0.336725 0.000000
vt 0.360176 0.000000
vt 0.360176 0.500000
vt 0.387751 0.000000
vt 0.387751 0.500000
vt 0.418391 0.000000
vt 0.418391 0.500000
vt 0.299138 0.090198
vt 0.037587 0.407395
vt 0.061038 0.055544
vt 0.450918 0.000000
vt 0.484082 0.500000
vt 0.450918 0.500000
vt 0.037587 0.904987
vt 0.061038 0.553136
vt 0.299138 0.587790
vt 0.317563 0.366645
vt 0.299138 0.407394
vt 0.275687 0.442049
vt 0.330255 0.321367
vt 0.336725 0.224292
vt 0.336725 0.273300
vt 0.317563 0.130947
vt 0.330255 0.176225
vt 0.248112 0.028316
vt 0.275687 0.055544
vt 0.184945 0.000000
vt 0.217472 0.009561
vt 0.119253 0.009561
vt 0.151780 0.000000
vt 0.088613 0.028316
vt 0.019162 0.130947
vt 0.037587 0.090198
vt 0.000000 0.224292
vt 0.006470 0.176225
vt 0.006470 0.321368
vt 0.000000 0.273301
vt 0.019162 0.366646
vt 0.088613 0.469277
vt 0.061038 0.442049
vt 0.119253 0.488031
vt 0.217472 0.488031
vt 0.184945 0.497592
vt 0.151780 0.497592
vt 0.248112 0.469276
vt 0.151780 0.995185
vt 0.061037 0.939641
vt 0.119253 0.985623
vt 0.088613 0.966869
vt 0.217472 0.985624
vt 0.184944 0.995185
vt 0.275687 0.939641
vt 0.248112 0.966869
vt 0.336725 0.770893
vt 0.299138 0.904987
vt 0.330255 0.818960
vt 0.317563 0.864238
vt 0.330255 0.673817
vt 0.336725 0.721884
vt 0.317563 0.628539
vt 0.275687 0.553136
vt 0.217472 0.507153
vt 0.248112 0.525908
vt 0.119253 0.507153
vt 0.088613 0.525908
vt 0.019162 0.628539
vt 0.037587 0.587790
vt 0.000000 0.721884
vt 0.006470 0.673817
vt 0.006470 0.818960
vt 0.000000 0.770893
vt 0.019162 0.864238
vn 0.098000 0.000000 -0.995200
vn 0.290300 0.000000 -0.956900
vn 0.471400 0.000000 -0.881900
vn 0.634400 0.000000 -0.773000
vn 0.773000 0.000000 -0.634400
vn 0.881900 0.000000 -0.471400
vn 0.956900 0.000000 -0.290300
vn 0.995200 0.000000 -0.098000
vn 0.995200 0.000000 0.098000
vn 0.956900 0.000000 0.290300
vn 0.881900 0.000000 0.471400
vn 0.773000 0.000000 0.634400
vn 0.634400 0.000000 0.773000
vn 0.471400 0.000000 0.881900
vn 0.290300 0.000000 0.956900
vn 0.098000 0.000000 0.995200
vn -0.098000 0.000000 0.995200
vn -0.290300 0.000000 0.956900
vn -0.471400 0.000000 0.881900
vn -0.634400 0.000000 0.773000
vn -0.773000 0.000000 0.634400
vn -0.881900 0.000000 0.471400
vn -0.956900 0.000000 0.290300
vn -0.995200 0.000000 0.098000
vn -0.995200 0.000000 -0.098000
vn -0.956900 0.000000 -0.290300
vn -0.881900 0.000000 -0.471400
vn -0.773000 0.000000 -0.634400
vn -0.634400 0.000000 -0.773000
vn -0.471400 0.000000 -0.881900
vn 0.000000 1.000000 0.000000
vn -0.098000 0.000000 -0.995200
vn -0.290300 0.000000 -0.956900
vn 0.000000 -1.000000 0.000000
usemtl Material.001
s off
f 2/1/1 4/2/1 3/3/1
f 4/2/2 6/4/2 5/5/2
f 6/4/3 8/6/3 7/7/3
f 8/6/4 10/8/4 9/9/4
f 10/8/5 12/10/5 11/11/5
f 12/12/6 14/13/6 13/14/6
f 14/13/7 16/15/7 15/16/7
f 16/15/8 18/17/8 17/18/8
f 18/17/9 20/19/9 19/20/9
f 20/19/10 22/21/10 21/22/10
f 22/21/11 24/23/11 23/24/11
f 24/23/12 26/25/12 25/26/12
f 26/25/13 28/27/13 27/28/13
f 28/7/14 30/29/14 29/30/14
f 30/29/15 32/31/15 31/32/15
f 32/31/16 34/33/16 33/34/16
f 34/33/17 36/35/17 35/36/17
f 36/35/18 38/37/18 37/38/18
f 38/37/19 40/39/19 39/40/19
f 40/39/20 42/41/20 41/42/20
f 42/41/21 44/43/21 43/44/21
f 44/43/22 46/45/22 45/46/22
f 46/45/23 48/47/23 47/48/23
f 48/47/24 50/49/24 49/50/24
f 50/49/25 52/51/25 51/52/25
f 52/51/26 54/53/26 53/54/26
f 54/53/27 56/55/27 55/56/27
f 56/57/28 58/58/28 57/59/28
f 58/58/29 60/60/29 59/61/29
f 60/60/30 62/62/30 61/63/30
f 20/64/31 52/65/31 36/66/31
f 64/67/32 2/1/32 1/68/32
f 62/62/33 64/67/33 63/69/33
f 1/70/34 17/71/34 33/72/34
f 1/68/1 2/1/1 3/3/1
f 3/3/2 4/2/2 5/5/2
f 5/5/3 6/4/3 7/7/3
f 7/7/4 8/6/4 9/9/4
f 9/9/5 10/8/5 11/11/5
f 11/7/6 12/12/6 13/14/6
f 13/14/7 14/13/7 15/16/7
f 15/16/8 16/15/8 17/18/8
f 17/18/9 18/17/9 19/20/9
f 19/20/10 20/19/10 21/22/10
f 21/22/11 22/21/11 23/24/11
f 23/24/12 24/23/12 25/26/12
f 25/26/13 26/25/13 27/28/13
f 27/12/14 28/7/14 29/30/14
f 29/30/15 30/29/15 31/32/15
f 31/32/16 32/31/16 33/34/16
f 33/34/17 34/33/17 35/36/17
f 35/36/18 36/35/18 37/38/18
f 37/38/19 38/37/19 39/40/19
f 39/40/20 40/39/20 41/42/20
f 41/42/21 42/41/21 43/44/21
f 43/44/22 44/43/22 45/46/22
f 45/46/23 46/45/23 47/48/23
f 47/48/24 48/47/24 49/50/24
f 49/50/25 50/49/25 51/52/25
f 51/52/26 52/51/26 53/54/26
f 53/54/27 54/53/27 55/56/27
f 55/28/28 56/57/28 57/59/28
f 57/59/29 58/58/29 59/61/29
f 59/61/30 60/60/30 61/63/30
f 8/73/31 6/74/31 4/75/31
f 4/75/31 10/76/31 8/73/31
f 20/64/31 14/77/31 12/78/31
f 20/64/31 18/79/31 16/80/31
f 24/81/31 22/82/31 20/64/31
f 28/83/31 26/84/31 24/81/31
f 32/85/31 30/86/31 28/83/31
f 36/66/31 34/87/31 32/85/31
f 40/88/31 38/89/31 36/66/31
f 44/90/31 42/91/31 40/88/31
f 48/92/31 46/93/31 44/90/31
f 52/65/31 50/94/31 48/92/31
f 56/95/31 54/96/31 52/65/31
f 52/65/31 58/97/31 56/95/31
f 64/98/31 62/99/31 60/100/31
f 4/75/31 2/101/31 64/98/31
f 12/78/31 10/76/31 4/75/31
f 20/64/31 16/80/31 14/77/31
f 36/66/31 24/81/31 20/64/31
f 36/66/31 32/85/31 28/83/31
f 52/65/31 40/88/31 36/66/31
f 52/65/31 48/92/31 44/90/31
f 60/100/31 58/97/31 52/65/31
f 4/75/31 64/98/31 60/100/31
f 20/64/31 12/78/31 4/75/31
f 36/66/31 28/83/31 24/81/31
f 52/65/31 44/90/31 40/88/31
f 4/75/31 60/100/31 52/65/31
f 52/65/31 20/64/31 4/75/31
f 63/69/32 64/67/32 1/68/32
f 61/63/33 62/62/33 63/69/33
f 57/102/34 63/103/34 1/70/34
f 57/102/34 59/104/34 61/105/34
f 53/106/34 55/107/34 57/102/34
f 49/108/34 51/109/34 53/106/34
f 41/110/34 47/111/34 49/108/34
f 41/110/34 43/112/34 45/113/34
f 37/114/34 39/115/34 41/110/34
f 33/72/34 35/116/34 37/114/34
f 25/99/34 31/117/34 33/72/34
f 25/99/34 27/118/34 29/119/34
f 21/120/34 23/100/34 25/99/34
f 17/71/34 19/121/34 21/120/34
f 13/122/34 15/123/34 17/71/34
f 9/124/34 11/125/34 13/122/34
f 5/126/34 7/127/34 9/124/34
f 1/70/34 3/128/34 5/126/34
f 57/102/34 61/105/34 63/103/34
f 49/108/34 53/106/34 57/102/34
f 41/110/34 45/113/34 47/111/34
f 49/108/34 37/114/34 41/110/34
f 25/99/34 29/119/34 31/117/34
f 33/72/34 21/120/34 25/99/34
f 1/70/34 13/122/34 17/71/34
f 1/70/34 5/126/34 9/124/34
f 33/72/34 57/102/34 1/70/34
f 33/72/34 37/114/34 49/108/34
f 17/71/34 21/120/34 33/72/34
f 1/70/34 9/124/34 13/122/34
f 33/72/34 49/108/34 57/102/34
